<svg width="512" height="775" viewBox="0 0 512 775" fill="none" xmlns="http://www.w3.org/2000/svg">
<path d="M0 16C0 7.16344 7.16344 0 16 0H496C504.837 0 512 7.16344 512 16V29.8082H0V16Z" fill="#359B37"/>
<rect y="29.8082" width="512" height="29.8082" fill="#4CA34C"/>
<rect y="89.4231" width="512" height="29.8082" fill="#4CA34C"/>
<rect y="149.038" width="512" height="29.8082" fill="#4CA34C"/>
<rect y="208.654" width="512" height="29.8082" fill="#4CA34C"/>
<rect y="268.269" width="512" height="29.8082" fill="#4CA34C"/>
<rect y="327.885" width="512" height="29.8082" fill="#4CA34C"/>
<rect y="387.5" width="512" height="29.8082" fill="#4CA34C"/>
<rect y="447.115" width="512" height="29.8082" fill="#4CA34C"/>
<rect y="506.731" width="512" height="29.8082" fill="#4CA34C"/>
<rect y="566.346" width="512" height="29.8082" fill="#4CA34C"/>
<rect y="625.961" width="512" height="29.8082" fill="#4CA34C"/>
<rect y="685.577" width="512" height="29.8082" fill="#4CA34C"/>
<path d="M0 745.192H512V759C512 767.837 504.837 775 496 775H16C7.16344 775 0 767.837 0 759V745.192Z" fill="#4CA34C"/>
<rect y="59.6154" width="512" height="29.8082" fill="#359B37"/>
<rect y="119.231" width="512" height="29.8082" fill="#359B37"/>
<rect y="178.846" width="512" height="29.8082" fill="#359B37"/>
<rect y="238.462" width="512" height="29.8082" fill="#359B37"/>
<rect y="298.077" width="512" height="29.8082" fill="#359B37"/>
<rect y="357.692" width="512" height="29.8082" fill="#359B37"/>
<rect y="417.308" width="512" height="29.8082" fill="#359B37"/>
<rect y="476.923" width="512" height="29.8082" fill="#359B37"/>
<rect y="536.539" width="512" height="29.8082" fill="#359B37"/>
<rect y="596.154" width="512" height="29.8082" fill="#359B37"/>
<rect y="655.769" width="512" height="29.8082" fill="#359B37"/>
<rect y="715.385" width="512" height="29.8082" fill="#359B37"/>
<rect x="20.6643" y="15.4042" width="470.671" height="744.192" stroke="white"/>
<path d="M478.308 15.4042H491.336V28.4316H485.808C481.666 28.4316 478.308 25.0737 478.308 20.9316V15.4042Z" stroke="white"/>
<path d="M485.808 746.569H491.336V759.596H478.308V754.069C478.308 749.927 481.666 746.569 485.808 746.569Z" stroke="white"/>
<path d="M20.6643 746.569H26.1917C30.3338 746.569 33.6917 749.927 33.6917 754.069V759.596H20.6643V746.569Z" stroke="white"/>
<path d="M20.6643 15.4042H33.6917V20.9316C33.6917 25.0737 30.3338 28.4316 26.1917 28.4316H20.6643V15.4042Z" stroke="white"/>
<rect x="124.993" y="15.4042" width="262.89" height="106.834" stroke="white"/>
<rect x="196.884" y="15.4042" width="119.11" height="34.9452" stroke="white"/>
<mask id="path-34-inside-1" fill="white">
<path fill-rule="evenodd" clip-rule="evenodd" d="M209.534 121.861C219.651 137.179 237.022 147.285 256.754 147.285C276.486 147.285 293.857 137.179 303.974 121.861H209.534Z"/>
</mask>
<path d="M209.534 121.861V120.861H207.675L208.7 122.412L209.534 121.861ZM303.974 121.861L304.808 122.412L305.833 120.861H303.974V121.861ZM256.754 146.285C237.372 146.285 220.308 136.36 210.368 121.31L208.7 122.412C218.994 137.998 236.672 148.285 256.754 148.285V146.285ZM303.139 121.31C293.2 136.36 276.136 146.285 256.754 146.285V148.285C276.835 148.285 294.514 137.998 304.808 122.412L303.139 121.31ZM303.974 120.861H209.534V122.861H303.974V120.861Z" fill="white" mask="url(#path-34-inside-1)"/>
<rect x="0.5" y="-0.5" width="262.89" height="106.834" transform="matrix(1 0 0 -1 124.493 759.096)" stroke="white"/>
<rect x="0.5" y="-0.5" width="119.11" height="34.9452" transform="matrix(1 0 0 -1 196.384 759.096)" stroke="white"/>
<mask id="path-38-inside-2" fill="white">
<path fill-rule="evenodd" clip-rule="evenodd" d="M209.534 653.139C219.651 637.821 237.022 627.715 256.754 627.715C276.486 627.715 293.857 637.821 303.974 653.139H209.534Z"/>
</mask>
<path d="M209.534 653.139V654.139H207.675L208.7 652.588L209.534 653.139ZM303.974 653.139L304.808 652.588L305.833 654.139H303.974V653.139ZM256.754 628.715C237.372 628.715 220.308 638.64 210.368 653.69L208.7 652.588C218.994 637.001 236.672 626.715 256.754 626.715V628.715ZM303.14 653.69C293.2 638.64 276.136 628.715 256.754 628.715V626.715C276.836 626.715 294.514 637.001 304.808 652.588L303.14 653.69ZM303.974 654.139H209.534V652.139H303.974V654.139Z" fill="white" mask="url(#path-38-inside-2)"/>
<line x1="20.1643" y1="387" x2="491.836" y2="387" stroke="white"/>
<path d="M316.87 387.5C316.87 421.117 289.617 448.369 256 448.369C222.382 448.369 195.13 421.117 195.13 387.5C195.13 353.883 222.382 326.631 256 326.631C289.617 326.631 316.87 353.883 316.87 387.5Z" stroke="white"/>
<circle cx="256" cy="386.623" r="1.75342" fill="white"/>
<circle cx="256" cy="89.423" r="1.75342" fill="white"/>
<circle cx="256" cy="685.577" r="1.75342" fill="white"/>
</svg>
