<svg width="48" height="48" viewBox="0 0 40 40" fill="none" xmlns="http://www.w3.org/2000/svg">
<path d="M38.632 4.10998C35.112 2.95598 26 -0.0300197 26 -1.97342e-05C26 1.59128 25.3679 3.1174 24.2427 4.24262C23.1175 5.36784 21.5913 5.99998 20 5.99998C18.4087 5.99998 16.8826 5.36784 15.7574 4.24262C14.6322 3.1174 14 1.59128 14 -1.97342e-05C14 -0.0300197 4.88803 2.95598 1.36603 4.10998C0.966989 4.24078 0.619741 4.49482 0.37427 4.83553C0.128799 5.17624 -0.00223524 5.58606 2.88536e-05 6.00598V13.438C0.000112774 13.7418 0.0694027 14.0416 0.20264 14.3146C0.335877 14.5876 0.52956 14.8267 0.768987 15.0137C1.00841 15.2007 1.28729 15.3307 1.58446 15.3938C1.88162 15.4569 2.18926 15.4515 2.48403 15.378L8.00003 14V38C8.00003 38.5304 8.21074 39.0391 8.58582 39.4142C8.96089 39.7893 9.4696 40 10 40H30C30.5305 40 31.0392 39.7893 31.4142 39.4142C31.7893 39.0391 32 38.5304 32 38V14L37.516 15.378C37.8108 15.4515 38.1184 15.4569 38.4156 15.3938C38.7128 15.3307 38.9916 15.2007 39.2311 15.0137C39.4705 14.8267 39.6642 14.5876 39.7974 14.3146C39.9307 14.0416 39.9999 13.7418 40 13.438V6.00598C40.0022 5.58581 39.8708 5.17581 39.625 4.83507C39.3791 4.49432 39.0314 4.24043 38.632 4.10998Z" fill="#C2185B"/>
</svg>
