<svg width="48" height="46" viewBox="0 0 48 46" fill="none" xmlns="http://www.w3.org/2000/svg">
<path d="M23.5957 32.1497C23.6437 32.2111 23.7051 32.2607 23.7751 32.2948C23.8452 32.329 23.9221 32.3467 24 32.3467C24.0779 32.3467 24.1548 32.329 24.2249 32.2948C24.2949 32.2607 24.3563 32.2111 24.4043 32.1497L31.5914 23.0567C31.8545 22.723 31.6171 22.2289 31.1872 22.2289H26.4321V0.513369C26.4321 0.231016 26.2011 0 25.9187 0H22.0684C21.7861 0 21.5551 0.231016 21.5551 0.513369V22.2225H16.8128C16.3829 22.2225 16.1455 22.7166 16.4086 23.0503L23.5957 32.1497ZM47.4866 29.9037H43.6364C43.354 29.9037 43.123 30.1348 43.123 30.4171V40.2995H4.87701V30.4171C4.87701 30.1348 4.64599 29.9037 4.36364 29.9037H0.513369C0.231016 29.9037 0 30.1348 0 30.4171V43.123C0 44.2588 0.917647 45.1765 2.05348 45.1765H45.9465C47.0824 45.1765 48 44.2588 48 43.123V30.4171C48 30.1348 47.769 29.9037 47.4866 29.9037Z" fill="#00C853"/>
</svg>
