<svg width="48" height="48" viewBox="0 0 48 48" fill="none" xmlns="http://www.w3.org/2000/svg">
<path d="M0 42C0 43.5913 0.632141 45.1174 1.75736 46.2426C2.88258 47.3679 4.4087 48 6 48H42C43.5913 48 45.1174 47.3679 46.2426 46.2426C47.3679 45.1174 48 43.5913 48 42V6C48 4.4087 47.3679 2.88258 46.2426 1.75736C45.1174 0.632141 43.5913 0 42 0L6 0C4.4087 0 2.88258 0.632141 1.75736 1.75736C0.632141 2.88258 0 4.4087 0 6L0 42ZM13.5 22.5H30.879L24.438 16.062C24.1563 15.7803 23.9981 15.3983 23.9981 15C23.9981 14.6017 24.1563 14.2197 24.438 13.938C24.7197 13.6563 25.1017 13.4981 25.5 13.4981C25.8983 13.4981 26.2803 13.6563 26.562 13.938L35.562 22.938C35.7017 23.0773 35.8125 23.2429 35.8881 23.4251C35.9638 23.6073 36.0027 23.8027 36.0027 24C36.0027 24.1973 35.9638 24.3927 35.8881 24.5749C35.8125 24.7571 35.7017 24.9227 35.562 25.062L26.562 34.062C26.2803 34.3437 25.8983 34.5019 25.5 34.5019C25.1017 34.5019 24.7197 34.3437 24.438 34.062C24.1563 33.7803 23.9981 33.3983 23.9981 33C23.9981 32.6017 24.1563 32.2197 24.438 31.938L30.879 25.5H13.5C13.1022 25.5 12.7206 25.342 12.4393 25.0607C12.158 24.7794 12 24.3978 12 24C12 23.6022 12.158 23.2206 12.4393 22.9393C12.7206 22.658 13.1022 22.5 13.5 22.5Z" fill="#00C853"/>
</svg>
